<svg width="814" height="103" viewBox="0 0 814 103" fill="none" xmlns="http://www.w3.org/2000/svg">
<path d="M26.124 88.5269C26.124 91.5845 26.4535 93.8299 27.1124 95.2632C27.7714 96.6009 28.9953 97.5564 30.7839 98.1297C32.6667 98.703 35.6322 98.9896 39.6802 98.9896C39.9626 98.9896 40.1038 99.2763 40.1038 99.8496C40.1038 100.423 39.9626 100.71 39.6802 100.71C35.8204 100.71 32.8079 100.662 30.6427 100.566L18.3574 100.423L8.04901 100.566C6.1662 100.662 3.62441 100.71 0.423632 100.71C0.141211 100.71 0 100.423 0 99.8496C0 99.2763 0.141211 98.9896 0.423632 98.9896C3.43613 98.9896 5.60136 98.7507 6.91932 98.273C8.33143 97.7952 9.27283 96.8875 9.74354 95.5498C10.2142 94.1166 10.4496 91.9667 10.4496 89.1002V22.741C10.4496 19.8745 10.2142 17.7724 9.74354 16.4348C9.27283 15.0971 8.33143 14.1893 6.91932 13.7116C5.50722 13.1383 3.34199 12.8516 0.423632 12.8516C0.141211 12.8516 0 12.565 0 11.9917C0 11.4184 0.141211 11.1317 0.423632 11.1317L7.9078 11.2751C12.2383 11.4662 15.6744 11.5617 18.2162 11.5617C20.4755 11.5617 23.1586 11.4184 26.2652 11.1317C27.489 11.0362 29.0423 10.9406 30.9251 10.8451C32.8079 10.7495 34.9732 10.7018 37.4208 10.7018C47.0232 10.7018 54.6015 12.7561 60.1557 16.8647C65.71 20.8778 68.4872 27.1363 68.4872 35.6402C68.4872 41.5643 66.9809 46.5807 63.9684 50.6893C60.9559 54.7979 57.0491 57.9033 52.2479 60.0054C47.5409 62.1075 42.6927 63.1585 37.7032 63.1585C35.1615 63.1585 32.9492 62.9196 31.0663 62.4419C30.8781 62.4419 30.7839 62.203 30.7839 61.7253C30.7839 61.4386 30.831 61.152 30.9251 60.8653C31.1134 60.5787 31.3017 60.4831 31.49 60.5787C32.9021 60.9609 34.5025 61.152 36.2911 61.152C40.6216 61.152 44.1989 59.0976 47.0232 54.989C49.9415 50.8804 51.4007 45.0519 51.4007 37.5034C51.4007 29.955 49.8003 24.1265 46.5995 20.0179C43.4929 15.9092 38.9271 13.8549 32.9021 13.8549C30.2662 13.8549 28.4775 14.476 27.5361 15.7181C26.5947 16.9603 26.124 19.3968 26.124 23.0277V88.5269Z" fill="#7E6761"/>
<path d="M91.8035 63.8751H132.472L133.461 67.8882H89.6853L91.8035 63.8751ZM166.786 98.9896C167.257 98.9896 167.492 99.2763 167.492 99.8496C167.492 100.423 167.257 100.71 166.786 100.71C164.904 100.71 161.985 100.614 158.031 100.423C153.889 100.232 150.924 100.136 149.135 100.136C146.781 100.136 143.91 100.232 140.521 100.423C137.32 100.614 134.779 100.71 132.896 100.71C132.519 100.71 132.331 100.423 132.331 99.8496C132.331 99.2763 132.519 98.9896 132.896 98.9896C135.343 98.9896 137.085 98.7507 138.121 98.273C139.25 97.6997 139.815 96.7442 139.815 95.4065C139.815 93.7822 138.874 91.059 136.991 87.237L108.325 29.7639L115.244 17.438L87.1435 80.3574C85.9197 83.1284 85.3078 85.7082 85.3078 88.097C85.3078 91.5368 86.4845 94.2121 88.8381 96.1231C91.2857 98.0341 94.5336 98.9896 98.5816 98.9896C99.0523 98.9896 99.2877 99.2763 99.2877 99.8496C99.2877 100.423 99.0523 100.71 98.5816 100.71C96.8871 100.71 94.4394 100.614 91.2386 100.423C87.6613 100.232 84.5547 100.136 81.9187 100.136C79.3769 100.136 76.3174 100.232 72.74 100.423C69.5393 100.614 66.9504 100.71 64.9735 100.71C64.5969 100.71 64.4086 100.423 64.4086 99.8496C64.4086 99.2763 64.5969 98.9896 64.9735 98.9896C67.6094 98.9896 69.8217 98.4641 71.6104 97.4131C73.399 96.2665 75.1877 94.3077 76.9764 91.5367C78.765 88.6703 80.8832 84.4661 83.3308 78.9242L113.974 10.5585C114.162 10.2718 114.585 10.1285 115.244 10.1285C115.998 10.1285 116.421 10.2718 116.515 10.5585L151.818 81.0741C155.113 87.8581 157.843 92.54 160.008 95.1199C162.173 97.6997 164.433 98.9896 166.786 98.9896Z" fill="#7E6761"/>
<path d="M241.461 100.71C239.296 100.71 235.295 96.7442 229.458 88.8136C223.622 80.7874 216.561 69.6559 208.277 55.419L221.268 51.4059C229.082 63.4452 235.578 72.8568 240.755 79.6408C246.027 86.4248 250.687 91.3456 254.735 94.4032C258.783 97.4608 262.737 98.9896 266.597 98.9896C266.785 98.9896 266.879 99.2763 266.879 99.8496C266.879 100.423 266.785 100.71 266.597 100.71H241.461ZM211.101 10.7018C219.668 10.7018 226.305 12.3261 231.012 15.5748C235.719 18.7279 238.072 23.171 238.072 28.904C238.072 34.3503 236.519 39.2711 233.412 43.6664C230.4 48.0617 226.446 51.5015 221.551 53.9857C216.655 56.3745 211.525 57.5689 206.159 57.5689C202.487 57.5689 199.898 57.5211 198.392 57.4255V89.1002C198.392 92.0623 198.628 94.2121 199.098 95.5498C199.569 96.8875 200.463 97.7952 201.781 98.273C203.193 98.7507 205.406 98.9896 208.418 98.9896C208.606 98.9896 208.701 99.2763 208.701 99.8496C208.701 100.423 208.606 100.71 208.418 100.71C205.311 100.71 202.864 100.662 201.075 100.566L190.343 100.423L180.035 100.566C178.152 100.662 175.61 100.71 172.409 100.71C172.127 100.71 171.986 100.423 171.986 99.8496C171.986 99.2763 172.127 98.9896 172.409 98.9896C175.422 98.9896 177.587 98.7507 178.905 98.273C180.317 97.7952 181.259 96.8875 181.729 95.5498C182.294 94.1166 182.577 91.9667 182.577 89.1002V22.741C182.577 19.8745 182.341 17.7724 181.87 16.4348C181.4 15.0971 180.458 14.1893 179.046 13.7116C177.634 13.1383 175.469 12.8516 172.551 12.8516C172.362 12.8516 172.268 12.565 172.268 11.9917C172.268 11.4184 172.362 11.1317 172.551 11.1317L180.035 11.2751C184.365 11.4662 187.801 11.5617 190.343 11.5617C193.544 11.5617 196.886 11.4184 200.369 11.1317C201.593 11.0362 203.099 10.9406 204.888 10.8451C206.771 10.7495 208.842 10.7018 211.101 10.7018ZM221.974 34.3503C221.974 26.5152 220.845 21.1167 218.585 18.1546C216.326 15.1926 213.078 13.7116 208.842 13.7116C205.076 13.7116 202.393 14.4282 200.793 15.8615C199.192 17.2947 198.392 19.6834 198.392 23.0277V53.4125C200.652 53.7947 203.382 53.9857 206.582 53.9857C212.043 53.9857 215.949 52.457 218.303 49.3994C220.75 46.2462 221.974 41.2299 221.974 34.3503Z" fill="#7E6761"/>
<path d="M291.484 63.8751H332.153L333.141 67.8882H289.366L291.484 63.8751ZM366.467 98.9896C366.938 98.9896 367.173 99.2763 367.173 99.8496C367.173 100.423 366.938 100.71 366.467 100.71C364.584 100.71 361.666 100.614 357.712 100.423C353.57 100.232 350.604 100.136 348.816 100.136C346.462 100.136 343.591 100.232 340.202 100.423C337.001 100.614 334.459 100.71 332.576 100.71C332.2 100.71 332.012 100.423 332.012 99.8496C332.012 99.2763 332.2 98.9896 332.576 98.9896C335.024 98.9896 336.766 98.7507 337.801 98.273C338.931 97.6997 339.496 96.7442 339.496 95.4065C339.496 93.7822 338.554 91.059 336.672 87.237L308.006 29.7639L314.925 17.438L286.824 80.3574C285.6 83.1284 284.988 85.7082 284.988 88.097C284.988 91.5368 286.165 94.2121 288.519 96.1231C290.966 98.0341 294.214 98.9896 298.262 98.9896C298.733 98.9896 298.968 99.2763 298.968 99.8496C298.968 100.423 298.733 100.71 298.262 100.71C296.568 100.71 294.12 100.614 290.919 100.423C287.342 100.232 284.235 100.136 281.599 100.136C279.058 100.136 275.998 100.232 272.421 100.423C269.22 100.614 266.631 100.71 264.654 100.71C264.278 100.71 264.089 100.423 264.089 99.8496C264.089 99.2763 264.278 98.9896 264.654 98.9896C267.29 98.9896 269.502 98.4641 271.291 97.4131C273.08 96.2665 274.868 94.3077 276.657 91.5367C278.446 88.6703 280.564 84.4661 283.012 78.9242L313.654 10.5585C313.843 10.2718 314.266 10.1285 314.925 10.1285C315.678 10.1285 316.102 10.2718 316.196 10.5585L351.499 81.0741C354.794 87.8581 357.524 92.54 359.689 95.1199C361.854 97.6997 364.114 98.9896 366.467 98.9896Z" fill="#7E6761"/>
<path d="M461.704 101.283C458.691 101.283 455.114 101.139 450.972 100.853C449.465 100.757 447.583 100.662 445.323 100.566C443.158 100.471 440.71 100.423 437.98 100.423L427.531 100.566C425.648 100.662 423.106 100.71 419.905 100.71C419.717 100.71 419.623 100.423 419.623 99.8496C419.623 99.2763 419.717 98.9896 419.905 98.9896C422.918 98.9896 425.13 98.7507 426.542 98.273C427.954 97.7952 428.896 96.8875 429.366 95.5498C429.931 94.1166 430.214 91.9667 430.214 89.1002V22.741C430.214 19.8745 429.931 17.7724 429.366 16.4348C428.896 15.0971 427.954 14.1893 426.542 13.7116C425.224 13.1383 423.106 12.8516 420.188 12.8516C419.905 12.8516 419.764 12.565 419.764 11.9917C419.764 11.4184 419.905 11.1317 420.188 11.1317L427.672 11.2751C432.002 11.4662 435.439 11.5617 437.98 11.5617C441.84 11.5617 445.794 11.4184 449.842 11.1317C454.737 10.9406 458.032 10.8451 459.727 10.8451C469.235 10.8451 477.66 12.7561 485.003 16.5781C492.441 20.4001 498.183 25.6075 502.231 32.2004C506.279 38.7934 508.303 46.1985 508.303 54.4157C508.303 63.684 506.185 71.9013 501.949 79.0675C497.807 86.1382 492.158 91.6323 485.003 95.5498C477.943 99.3718 470.176 101.283 461.704 101.283ZM460.292 97.9863C466.317 97.9863 471.635 96.4576 476.248 93.4C480.861 90.2468 484.439 85.6127 486.98 79.4975C489.616 73.3823 490.934 66.0728 490.934 57.5689C490.934 49.4471 489.711 42.0898 487.263 35.4969C484.815 28.8084 481.332 23.5532 476.813 19.7312C472.294 15.9092 467.07 13.9982 461.139 13.9982C455.302 13.9982 451.301 14.5715 449.136 15.7181C446.971 16.8647 445.888 19.3012 445.888 23.0277V87.5237C445.888 91.3456 446.877 94.0688 448.854 95.6932C450.83 97.222 454.643 97.9863 460.292 97.9863Z" fill="#7E6761"/>
<path d="M566.917 102.429C558.162 102.429 550.348 100.375 543.476 96.2665C536.698 92.0623 531.426 86.4248 527.66 79.3542C523.989 72.188 522.153 64.4007 522.153 55.9923C522.153 46.1507 524.601 37.7423 529.496 30.7672C534.391 23.6965 540.651 18.3935 548.277 14.8582C555.996 11.3228 563.857 9.55518 571.859 9.55518C580.802 9.55518 588.663 11.705 595.441 16.0048C602.219 20.209 607.397 25.7986 610.974 32.7737C614.646 39.7489 616.482 47.1539 616.482 54.989C616.482 63.684 614.222 71.6624 609.703 78.9242C605.185 86.186 599.113 91.9189 591.487 96.1231C583.956 100.327 575.766 102.429 566.917 102.429ZM571.577 98.8463C576.849 98.8463 581.555 97.3175 585.698 94.2599C589.934 91.1068 593.229 86.5682 595.582 80.6441C597.936 74.6245 599.113 67.4582 599.113 59.1454C599.113 50.3549 597.795 42.5198 595.159 35.6402C592.523 28.6651 588.71 23.2188 583.721 19.3012C578.731 15.3837 572.895 13.4249 566.211 13.4249C557.644 13.4249 551.054 16.7214 546.441 23.3143C541.828 29.8117 539.522 38.9367 539.522 50.6893C539.522 59.9576 540.887 68.2704 543.617 75.6277C546.441 82.8895 550.254 88.5747 555.055 92.6833C559.95 96.792 565.458 98.8463 571.577 98.8463Z" fill="#7E6761"/>
<path d="M703.979 29.4773C703.979 24.3176 702.802 20.2567 700.449 17.2947C698.19 14.3327 694.989 12.8516 690.847 12.8516C690.658 12.8516 690.564 12.565 690.564 11.9917C690.564 11.4184 690.658 11.1317 690.847 11.1317L697.625 11.2751C701.202 11.4662 704.073 11.5617 706.239 11.5617C708.027 11.5617 710.616 11.4662 714.005 11.2751L720.501 11.1317C720.689 11.1317 720.783 11.4184 720.783 11.9917C720.783 12.565 720.689 12.8516 720.501 12.8516C716.829 12.8516 713.958 14.3327 711.887 17.2947C709.816 20.2567 708.78 24.3176 708.78 29.4773V69.3215C708.78 76.0099 707.321 81.8862 704.403 86.9504C701.485 92.0145 697.342 95.932 691.976 98.703C686.704 101.378 680.585 102.716 673.619 102.716C666.653 102.716 660.486 101.378 655.12 98.703C649.754 96.0276 645.518 92.1578 642.411 87.0937C639.399 81.934 637.893 75.9144 637.893 69.0348V22.741C637.893 19.8745 637.61 17.7724 637.045 16.4348C636.575 15.0971 635.633 14.1893 634.221 13.7116C632.903 13.1383 630.785 12.8516 627.867 12.8516C627.584 12.8516 627.443 12.565 627.443 11.9917C627.443 11.4184 627.584 11.1317 627.867 11.1317L635.351 11.2751C639.681 11.4662 643.117 11.5617 645.659 11.5617C648.483 11.5617 652.061 11.4662 656.391 11.2751L663.593 11.1317C663.875 11.1317 664.017 11.4184 664.017 11.9917C664.017 12.565 663.875 12.8516 663.593 12.8516C660.675 12.8516 658.509 13.1383 657.097 13.7116C655.779 14.2849 654.838 15.2882 654.273 16.7214C653.802 18.0591 653.567 20.1612 653.567 23.0277V64.0185C653.567 75.3889 655.779 83.7972 660.204 89.2436C664.629 94.6899 670.889 97.4131 678.985 97.4131C686.799 97.4131 692.918 95.0243 697.342 90.2468C701.767 85.3738 703.979 78.4464 703.979 69.4648V29.4773Z" fill="#7E6761"/>
<path d="M779.686 100.71C779.403 100.71 779.262 100.423 779.262 99.8496C779.262 99.2763 779.403 98.9896 779.686 98.9896C782.792 98.9896 784.346 98.1774 784.346 96.5531C784.346 95.6932 783.922 94.6421 783.075 93.4L739.158 24.3176C736.617 20.209 734.169 17.2947 731.815 15.5748C729.462 13.7594 726.967 12.8516 724.331 12.8516C724.049 12.8516 723.908 12.565 723.908 11.9917C723.908 11.4184 724.049 11.1317 724.331 11.1317L730.403 11.2751C733.039 11.4662 735.016 11.5617 736.334 11.5617C739.629 11.5617 743.724 11.4662 748.62 11.2751L756.668 11.1317C756.857 11.1317 756.951 11.4184 756.951 11.9917C756.951 12.565 756.857 12.8516 756.668 12.8516C753.468 12.8516 751.867 13.6638 751.867 15.2882C751.867 16.0526 752.291 17.1514 753.138 18.5846L797.902 88.8136C800.256 92.3489 802.656 94.9288 805.104 96.5531C807.551 98.1774 810.376 98.9896 813.576 98.9896C813.859 98.9896 814 99.2763 814 99.8496C814 100.423 813.859 100.71 813.576 100.71C810.846 100.71 808.728 100.662 807.222 100.566L798.749 100.423L787.17 100.566C785.381 100.662 782.887 100.71 779.686 100.71ZM723.343 100.71C723.06 100.71 722.919 100.423 722.919 99.8496C722.919 99.2763 723.06 98.9896 723.343 98.9896C726.261 98.9896 729.839 97.413 734.075 94.2599C738.311 91.1068 742.736 86.2815 747.349 79.7841L764.717 55.9923L767.259 57.9988L751.585 80.6441C747.913 85.8993 746.078 90.1513 746.078 93.4C746.078 97.1264 748.525 98.9896 753.421 98.9896C753.609 98.9896 753.703 99.2763 753.703 99.8496C753.703 100.423 753.609 100.71 753.421 100.71C750.314 100.71 747.96 100.662 746.36 100.566L735.911 100.423L729.274 100.566C728.05 100.662 726.073 100.71 723.343 100.71ZM767.401 53.9857L783.075 31.3405C786.746 25.9897 788.582 21.69 788.582 18.4413C788.582 14.7149 786.134 12.8516 781.239 12.8516C781.051 12.8516 780.957 12.565 780.957 11.9917C780.957 11.4184 781.051 11.1317 781.239 11.1317L788.3 11.2751C792.065 11.4662 795.548 11.5617 798.749 11.5617C800.726 11.5617 802.939 11.4662 805.386 11.2751L811.317 11.1317C811.599 11.1317 811.741 11.4184 811.741 11.9917C811.741 12.565 811.599 12.8516 811.317 12.8516C808.305 12.8516 804.68 14.476 800.444 17.7247C796.302 20.8778 791.877 25.7031 787.17 32.2004L769.942 55.9923L767.401 53.9857Z" fill="#7E6761"/>
<path d="M370.157 15.0849C368.629 22.3282 360.635 30.3413 356.828 33.4424C358.059 30.1198 357.932 24.1806 354.154 19.7366C350.376 15.2926 349.527 14.0466 349.527 10.6825C349.527 7.31831 350.571 4.0901 354.154 1.37913C356.844 -0.65597 363.678 -0.252413 365.87 1.37913C367.823 2.83278 372.067 6.03079 370.157 15.0849Z" fill="#7E6761"/>
</svg>
