<svg width="72" height="72" viewBox="0 0 72 72" fill="none" xmlns="http://www.w3.org/2000/svg">
<path d="M67.2061 0C69.5539 0 71.4569 1.9032 71.457 4.25098V67.749C71.4569 70.0968 69.5539 72 67.2061 72H4.25098C1.90327 71.9998 0.00010594 70.0967 0 67.749V4.25098C0.000155115 1.9033 1.9033 0.000153809 4.25098 0H67.2061ZM50.6172 1.9873C42.6143 2.00992 33.2852 2.0332 27.0449 2.0332L26.917 3.01562C28.5956 3.46193 30.481 4.65512 32.1455 6.20605C33.8071 7.75434 35.1996 9.61463 35.9229 11.3418C37.1485 14.2687 37.561 17.5256 37.5127 20.3799C37.4641 23.2461 36.9526 25.644 36.3838 26.8555C35.1571 29.4679 33.4272 34.2785 27.0283 37.8242C22.5702 40.2944 17.7767 41.1927 14.0312 41.3916C12.1602 41.4909 10.5595 41.4158 9.40527 41.2783C8.82706 41.2094 8.36864 41.1257 8.04883 41.0439C7.88808 41.0028 7.7728 40.9644 7.69922 40.9336C7.69269 40.9308 7.68699 40.9272 7.68164 40.9248C7.6633 40.8678 7.66231 40.7668 7.72949 40.585C7.765 40.489 7.80663 40.404 7.84961 40.3232C8.6211 40.5635 9.78482 40.7302 11.0791 40.7266C12.662 40.722 14.5127 40.4666 16.1865 39.7373C19.0982 38.4684 21.7279 34.9977 23.2109 30.3193C24.7013 25.6174 25.0649 19.6136 23.3682 13.1475C21.813 7.22105 18.6731 4.51583 15.4297 3.2998C12.254 2.10929 8.97037 2.36659 7.33594 2.25977C5.75516 2.15669 4.68128 2.87634 4.01172 3.80273C3.35972 4.70506 3.08719 5.80175 3.0293 6.54199L3.02734 6.56152V63.9727C3.02738 65.5533 3.37393 66.991 4.02539 68.0508C4.68127 69.1177 5.67215 69.83 6.91699 69.8311V69.832L47.5752 70.0576L47.7744 69.0977C47.0436 68.786 42.5759 66.6724 38.79 62.3008C35.02 57.9472 31.9189 51.3514 33.8662 42.0039C35.9753 31.8805 41.9933 26.7044 48.6855 24.2441C55.41 21.7722 62.833 22.0407 67.6631 22.8799L68.2178 22.9766L68.248 22.4141C68.5013 17.6736 68.3389 8.63924 68.3389 4.38672C68.3388 3.59391 68.1536 2.96292 67.749 2.53027C67.3385 2.09149 66.7833 1.94238 66.2334 1.94238C65.2952 1.94239 58.6175 1.9647 50.6172 1.9873ZM66.7246 25.1533C65.9102 24.1615 61.7797 23.7071 58.8545 23.8643C54.4675 24.1 44.8307 27.076 42.9131 43.8096C41.0136 60.3849 49.787 68.4574 55.1689 69.5654H65.2998C67.1383 69.5652 67.8779 67.9971 67.8779 66.377C67.8779 64.811 67.8545 29.5008 67.8545 27.7998C67.8545 26.1038 67.2444 25.7865 66.7246 25.1533Z" fill="#7E6761"/>
</svg>
