<svg width="33" height="44" viewBox="0 0 33 44" fill="none" xmlns="http://www.w3.org/2000/svg">
<path d="M5.5 0C2.46641 0 0 2.46641 0 5.5V38.5C0 41.5336 2.46641 44 5.5 44H27.5C30.5336 44 33 41.5336 33 38.5V5.5C33 2.46641 30.5336 0 27.5 0H5.5ZM15.125 30.25H17.875C19.3961 30.25 20.625 31.4789 20.625 33V39.875H12.375V33C12.375 31.4789 13.6039 30.25 15.125 30.25ZM8.25 9.625C8.25 8.86875 8.86875 8.25 9.625 8.25H12.375C13.1313 8.25 13.75 8.86875 13.75 9.625V12.375C13.75 13.1313 13.1313 13.75 12.375 13.75H9.625C8.86875 13.75 8.25 13.1313 8.25 12.375V9.625ZM20.625 8.25H23.375C24.1313 8.25 24.75 8.86875 24.75 9.625V12.375C24.75 13.1313 24.1313 13.75 23.375 13.75H20.625C19.8687 13.75 19.25 13.1313 19.25 12.375V9.625C19.25 8.86875 19.8687 8.25 20.625 8.25ZM8.25 20.625C8.25 19.8687 8.86875 19.25 9.625 19.25H12.375C13.1313 19.25 13.75 19.8687 13.75 20.625V23.375C13.75 24.1313 13.1313 24.75 12.375 24.75H9.625C8.86875 24.75 8.25 24.1313 8.25 23.375V20.625ZM20.625 19.25H23.375C24.1313 19.25 24.75 19.8687 24.75 20.625V23.375C24.75 24.1313 24.1313 24.75 23.375 24.75H20.625C19.8687 24.75 19.25 24.1313 19.25 23.375V20.625C19.25 19.8687 19.8687 19.25 20.625 19.25Z" fill="#7E6761"/>
</svg>
