<svg width="40" height="40" viewBox="0 0 40 40" fill="none" xmlns="http://www.w3.org/2000/svg">
<path d="M12.5103 1.95422C11.8931 0.477547 10.2836 -0.303759 8.75227 0.110333L8.32256 0.227529C3.27541 1.60263 -1.03732 6.49361 0.220557 12.4472C3.11915 26.12 13.8776 36.8786 27.5502 39.7773C33.5114 41.043 38.3945 36.7224 39.7696 31.6751L39.8868 31.2454C40.3087 29.7062 39.5196 28.0967 38.0507 27.4873L30.4488 24.323C29.1596 23.7839 27.6674 24.159 26.7767 25.245L23.7609 28.9327C18.2684 26.206 13.8463 21.6431 11.3071 16.0412L14.7604 13.2285C15.8464 12.3456 16.2136 10.8533 15.6823 9.55633L12.5103 1.95422Z" fill="#7E6761"/>
</svg>
