<svg width="41" height="42" viewBox="0 0 41 42" fill="none" xmlns="http://www.w3.org/2000/svg">
<path d="M5.76 0C2.583 0 0 2.63026 0 5.86538V35.1923C0 38.4274 2.583 41.0577 5.76 41.0577H14.598V27.6956H9.846V20.5288H14.598V17.4404C14.598 9.45793 18.144 5.75541 25.848 5.75541C27.306 5.75541 29.826 6.04868 30.861 6.34195V12.8305C30.321 12.7755 29.376 12.7389 28.197 12.7389C24.417 12.7389 22.959 14.1961 22.959 17.9811V20.5288H30.483L29.187 27.6956H22.95V41.0577H34.56C37.737 41.0577 40.32 38.4274 40.32 35.1923V5.86538C40.32 2.63026 37.737 0 34.56 0H5.76Z" fill="#7E6761"/>
</svg>
