<svg width="41" height="42" viewBox="0 0 41 42" fill="none" xmlns="http://www.w3.org/2000/svg">
<path d="M20.1645 10.0022C14.4527 9.98385 9.81127 14.6929 9.79329 20.5105C9.7753 26.3281 14.3987 31.0555 20.1105 31.0738C25.8223 31.0922 30.4637 26.3831 30.4817 20.5655C30.4997 14.7479 25.8763 10.0205 20.1645 10.0022ZM20.1105 13.7035C23.8165 13.6851 26.8298 16.7359 26.8478 20.5105C26.8658 24.2851 23.8704 27.3542 20.1645 27.3726C16.4586 27.3909 13.4452 24.3401 13.4273 20.5655C13.4093 16.7909 16.4046 13.7218 20.1105 13.7035ZM28.5118 9.57158C28.5118 8.21566 29.5912 7.11627 30.9225 7.11627C32.2537 7.11627 33.3331 8.21566 33.3331 9.57158C33.3331 10.9275 32.2537 12.0269 30.9225 12.0269C29.5912 12.0269 28.5118 10.9275 28.5118 9.57158ZM40.1783 12.0635C40.0254 8.77452 39.2878 5.86113 36.9221 3.46079C34.5655 1.06046 31.7051 0.309204 28.4759 0.144295C25.1477 -0.0480984 15.1723 -0.0480984 11.8441 0.144295C8.62394 0.300042 5.76353 1.05129 3.39785 3.45163C1.03217 5.85197 0.303581 8.76536 0.141671 12.0544C-0.0472236 15.4442 -0.0472236 25.6044 0.141671 28.9942C0.294586 32.2832 1.03217 35.1966 3.39785 37.5969C5.76353 39.9972 8.61494 40.7485 11.8441 40.9134C15.1723 41.1058 25.1477 41.1058 28.4759 40.9134C31.7051 40.7577 34.5655 40.0064 36.9221 37.5969C39.2788 35.1966 40.0164 32.2832 40.1783 28.9942C40.3672 25.6044 40.3672 15.4533 40.1783 12.0635ZM35.8787 32.6313C35.1771 34.427 33.8189 35.8104 32.0469 36.5342C29.3933 37.6061 23.0969 37.3587 20.1645 37.3587C17.2321 37.3587 10.9267 37.5969 8.28213 36.5342C6.51911 35.8195 5.16087 34.4361 4.45027 32.6313C3.39785 29.9286 3.64072 23.5155 3.64072 20.5288C3.64072 17.5422 3.40685 11.1199 4.45027 8.42638C5.15188 6.6307 6.51012 5.2473 8.28213 4.52354C10.9356 3.45163 17.2321 3.69899 20.1645 3.69899C23.0969 3.69899 29.4023 3.46079 32.0469 4.52354C33.8099 5.23814 35.1681 6.62154 35.8787 8.42638C36.9311 11.129 36.6883 17.5422 36.6883 20.5288C36.6883 23.5155 36.9311 29.9378 35.8787 32.6313Z" fill="#7E6761"/>
</svg>
