<svg width="30" height="41" viewBox="0 0 30 41" fill="none" xmlns="http://www.w3.org/2000/svg">
<path d="M0.00781035 15.0148C0.00781035 6.71922 6.72481 0 15.0039 0C23.283 0 30 6.71922 30 15.0148C30 24.5124 20.6118 35.8969 16.691 40.2357C15.7693 41.2548 14.2307 41.2548 13.309 40.2357C9.38818 35.8969 0 24.5124 0 15.0148H0.00781035ZM15.0039 20.3806C17.761 20.3806 20.0026 18.0957 20.0026 15.2854C20.0026 12.4751 17.761 10.1903 15.0039 10.1903C12.2468 10.1903 10.0052 12.4751 10.0052 15.2854C10.0052 18.0957 12.2468 20.3806 15.0039 20.3806Z" fill="#7E6761"/>
</svg>
