<svg width="45" height="34" viewBox="0 0 45 34" fill="none" xmlns="http://www.w3.org/2000/svg">
<path d="M5.625 0C2.52246 0 0 2.54115 0 5.66667V28.3333C0 31.4589 2.52246 34 5.625 34H39.375C42.4775 34 45 31.4589 45 28.3333V5.66667C45 2.54115 42.4775 0 39.375 0H5.625ZM22.5 8.5C27.1582 8.5 30.9375 12.3073 30.9375 17C30.9375 21.6927 27.1582 25.5 22.5 25.5C17.8418 25.5 14.0625 21.6927 14.0625 17C14.0625 12.3073 17.8418 8.5 22.5 8.5ZM39.375 10.625C39.375 11.0146 39.0586 11.3422 38.6719 11.2891C36.123 10.9703 34.1104 8.93385 33.7939 6.375C33.75 5.98542 34.0664 5.66667 34.4531 5.66667H38.6719C39.0586 5.66667 39.375 5.98542 39.375 6.375V10.625ZM5.625 23.375C5.625 22.9854 5.94141 22.6578 6.32812 22.7109C8.87695 23.0297 10.8896 25.0661 11.2061 27.625C11.25 28.0146 10.9336 28.3333 10.5469 28.3333H6.32812C5.94141 28.3333 5.625 28.0146 5.625 27.625V23.375ZM6.32812 11.2891C5.94141 11.3333 5.625 11.0146 5.625 10.625V6.375C5.625 5.98542 5.94141 5.66667 6.32812 5.66667H10.5469C10.9336 5.66667 11.2588 5.98542 11.2061 6.375C10.8896 8.94271 8.86816 10.9703 6.32812 11.2891ZM38.6719 22.7109C39.0586 22.6667 39.375 22.9854 39.375 23.375V27.625C39.375 28.0146 39.0586 28.3333 38.6719 28.3333H34.4531C34.0664 28.3333 33.7412 28.0146 33.7939 27.625C34.1104 25.0573 36.1318 23.0297 38.6719 22.7109Z" fill="#7E6761"/>
</svg>
